<svg xmlns="http://www.w3.org/2000/svg" xmlns:xlink="http://www.w3.org/1999/xlink" width="256" zoomAndPan="magnify" viewBox="0 0 192 191.999996" height="256" preserveAspectRatio="xMidYMid meet" version="1.0"><defs><g/><clipPath id="491b6e924d"><path d="M 96.089844 0 C 43.019531 0 0 43.019531 0 96.089844 C 0 149.15625 43.019531 192.175781 96.089844 192.175781 C 149.15625 192.175781 192.175781 149.15625 192.175781 96.089844 C 192.175781 43.019531 149.15625 0 96.089844 0 Z M 96.089844 0 " clip-rule="nonzero"/></clipPath><clipPath id="154a64f3d6"><path d="M 0 0 L 192 0 L 192 192 L 0 192 Z M 0 0 " clip-rule="nonzero"/></clipPath><clipPath id="8496b3de78"><path d="M 96.089844 0 C 43.019531 0 0 43.019531 0 96.089844 C 0 149.15625 43.019531 192.175781 96.089844 192.175781 C 149.15625 192.175781 192.175781 149.15625 192.175781 96.089844 C 192.175781 43.019531 149.15625 0 96.089844 0 Z M 96.089844 0 " clip-rule="nonzero"/></clipPath><clipPath id="c724bcaa16"><rect x="0" width="192" y="0" height="192"/></clipPath><clipPath id="fef7e6906a"><path d="M 1.054688 1.054688 L 191.121094 1.054688 L 191.121094 191.121094 L 1.054688 191.121094 Z M 1.054688 1.054688 " clip-rule="nonzero"/></clipPath><clipPath id="c0d06073b1"><path d="M 96.089844 1.164062 C 43.664062 1.164062 1.164062 43.664062 1.164062 96.089844 C 1.164062 148.511719 43.664062 191.011719 96.089844 191.011719 C 148.511719 191.011719 191.011719 148.511719 191.011719 96.089844 C 191.011719 43.664062 148.511719 1.164062 96.089844 1.164062 Z M 96.089844 1.164062 " clip-rule="nonzero"/></clipPath><clipPath id="3b1680a3ea"><path d="M 0.0546875 0.0546875 L 190.039062 0.0546875 L 190.039062 190.039062 L 0.0546875 190.039062 Z M 0.0546875 0.0546875 " clip-rule="nonzero"/></clipPath><clipPath id="1db1b0dd83"><path d="M 95.089844 0.164062 C 42.664062 0.164062 0.164062 42.664062 0.164062 95.089844 C 0.164062 147.511719 42.664062 190.011719 95.089844 190.011719 C 147.511719 190.011719 190.011719 147.511719 190.011719 95.089844 C 190.011719 42.664062 147.511719 0.164062 95.089844 0.164062 Z M 95.089844 0.164062 " clip-rule="nonzero"/></clipPath><clipPath id="35fb2d2800"><rect x="0" width="191" y="0" height="191"/></clipPath></defs><g clip-path="url(#491b6e924d)"><g transform="matrix(1, 0, 0, 1, 0, 0)"><g clip-path="url(#c724bcaa16)"><g clip-path="url(#154a64f3d6)"><g clip-path="url(#8496b3de78)"><rect x="-42.24" width="276.48" fill="#00bf63" height="276.479994" y="-42.239999" fill-opacity="1"/></g></g></g></g></g><g clip-path="url(#fef7e6906a)"><g clip-path="url(#c0d06073b1)"><g transform="matrix(1, 0, 0, 1, 1, 1)"><g clip-path="url(#35fb2d2800)"><g clip-path="url(#3b1680a3ea)"><g clip-path="url(#1db1b0dd83)"><rect x="-43.24" width="276.48" fill="#00bf63" height="276.479994" y="-43.239999" fill-opacity="1"/></g></g></g></g></g></g><g fill="#ffffff" fill-opacity="1"><g transform="translate(32.453906, 181.771946)"><g><path d="M 125.609375 -149.859375 C 128.535156 -146.929688 130.171875 -142.644531 130.515625 -137 C 130.867188 -131.351562 130.3125 -124.875 128.84375 -117.5625 C 127.382812 -110.25 125.363281 -102.691406 122.78125 -94.890625 C 120.207031 -87.085938 117.421875 -79.457031 114.421875 -72 C 111.429688 -64.539062 108.578125 -57.78125 105.859375 -51.71875 C 103.140625 -45.664062 100.910156 -40.863281 99.171875 -37.3125 C 97.429688 -33.757812 96.5625 -31.984375 96.5625 -31.984375 L 57.265625 0 C 53.785156 0 50.582031 -1.914062 47.65625 -5.75 C 44.726562 -9.582031 42.007812 -14.703125 39.5 -21.109375 C 36.988281 -27.515625 34.550781 -34.582031 32.1875 -42.3125 C 29.820312 -50.050781 27.488281 -57.960938 25.1875 -66.046875 C 22.882812 -74.128906 20.441406 -81.6875 17.859375 -88.71875 C 15.285156 -95.757812 12.570312 -101.785156 9.71875 -106.796875 C 6.863281 -111.816406 3.691406 -115.160156 0.203125 -116.828125 C -3.273438 -118.503906 -7.175781 -117.945312 -11.5 -115.15625 L -15.046875 -121.84375 L 22.578125 -153.203125 C 26.617188 -153.753906 30.3125 -151.972656 33.65625 -147.859375 C 37 -143.753906 40.128906 -138.148438 43.046875 -131.046875 C 45.972656 -123.941406 48.796875 -116.066406 51.515625 -107.421875 C 54.234375 -98.785156 56.847656 -90.078125 59.359375 -81.296875 C 61.867188 -72.523438 64.375 -64.515625 66.875 -57.265625 C 69.382812 -50.015625 72.035156 -44.234375 74.828125 -39.921875 C 78.304688 -48.835938 81.539062 -57.859375 84.53125 -66.984375 C 87.53125 -76.109375 90.070312 -84.675781 92.15625 -92.6875 C 94.25 -100.695312 95.570312 -107.523438 96.125 -113.171875 C 96.6875 -118.816406 96.273438 -122.546875 94.890625 -124.359375 C 91.816406 -128.535156 87.984375 -130.625 83.390625 -130.625 C 78.796875 -130.625 72.382812 -128.046875 64.15625 -122.890625 L 59.78125 -130.421875 C 64.789062 -135.148438 70.222656 -139.5 76.078125 -143.46875 C 81.929688 -147.445312 87.851562 -150.582031 93.84375 -152.875 C 99.832031 -155.175781 105.578125 -156.1875 111.078125 -155.90625 C 116.585938 -155.632812 121.429688 -153.617188 125.609375 -149.859375 Z M 125.609375 -149.859375 "/></g></g></g></svg>